<?xml version="1.0" encoding="iso-8859-1"?>
<!-- Generator: Adobe Illustrator 16.0.0, SVG Export Plug-In . SVG Version: 6.00 Build 0)  -->
<!DOCTYPE svg PUBLIC "-//W3C//DTD SVG 1.1//EN" "http://www.w3.org/Graphics/SVG/1.1/DTD/svg11.dtd">
<svg version="1.1" id="Capa_1" xmlns="http://www.w3.org/2000/svg" xmlns:xlink="http://www.w3.org/1999/xlink" x="0px" y="0px"
	 width="612px" height="612px" viewBox="0 0 612 612" style="enable-background:new 0 0 612 612;" xml:space="preserve">
<g>
	<g id="Shape_884">
		<g>
			<path d="M180.052,126.499c-29.028-12.168-55.903-28.365-80.015-47.948C41.022,132.476,3.029,209.187,0,294.995h142.069
				C143.548,235.073,157.021,178.16,180.052,126.499z M448.054,317.005H316.949v143.313c32.935,0.714,64.573,6.507,94.376,16.544
				C433.56,427.914,446.564,373.898,448.054,317.005z M142.069,317.005H0c3.08,87.359,42.46,165.171,103.3,219.229
				c23.377-19.727,49.488-36.117,77.669-48.642C157.378,435.37,143.558,377.743,142.069,317.005z M263.973,1.352
				C208.998,8.93,158.725,31.154,117.11,63.956c21.939,17.37,46.234,31.761,72.406,42.644
				C209.171,67.873,234.262,32.398,263.973,1.352z M411.009,134.394c-29.69,10.087-61.228,16.034-94.06,17.115v143.486h131.094
				C446.544,237.816,433.438,183.535,411.009,134.394z M316.949,3.616v125.892c29.375-1.03,57.627-6.231,84.288-15.054
				C379.492,72.891,350.913,35.458,316.949,3.616z M469.921,294.995H612c-3.029-85.829-40.992-162.58-100.006-216.504
				c-24.255,19.716-51.273,36.024-80.494,48.233C454.785,178.282,468.432,235.113,469.921,294.995z M494.828,63.956
				c-42.216-33.25-93.295-55.679-149.188-62.941c30.455,31.119,56.168,66.807,76.262,105.861
				C448.288,95.972,472.736,81.448,494.828,63.956z M210.13,114.27c26.855,8.935,55.322,14.198,84.921,15.248V1.494
				C260.771,33.837,231.957,71.952,210.13,114.27z M316.949,482.461v125.913c34.138-31.985,62.85-69.652,84.636-111.46
				C374.79,488.193,346.426,483.155,316.949,482.461z M345.6,610.985c56.188-7.272,107.503-29.926,149.841-63.481
				c-22.174-17.635-46.704-32.271-73.171-43.124C402.125,543.72,376.259,579.673,345.6,610.985z M431.867,484.42
				c29.312,12.188,56.383,28.66,80.708,48.569c58.688-53.894,96.405-130.44,99.415-215.984H469.932
				C468.442,376.55,454.938,433.096,431.867,484.42z M201.215,479.33c29.538-10.761,61.044-17.135,93.835-18.665v-143.66H163.947
				C165.446,374.826,178.634,429.679,201.215,479.33z M295.051,610.506V482.818c-29.323,1.479-57.505,7.119-84.034,16.523
				C232.732,541.017,261.219,578.571,295.051,610.506z M120.568,550.604c40.92,31.343,89.878,52.659,143.333,60.044
				c-29.15-30.476-53.863-65.246-73.344-103.137C165.262,518.67,141.763,533.184,120.568,550.604z M163.957,294.995h131.094V151.529
				c-32.995-1.102-64.695-7.068-94.519-17.278C178.389,183.504,165.436,237.796,163.957,294.995z"/>
		</g>
	</g>
</g>
<g>
</g>
<g>
</g>
<g>
</g>
<g>
</g>
<g>
</g>
<g>
</g>
<g>
</g>
<g>
</g>
<g>
</g>
<g>
</g>
<g>
</g>
<g>
</g>
<g>
</g>
<g>
</g>
<g>
</g>
</svg>
